<?xml version="1.0" encoding="UTF-8" standalone="no"?>
<!DOCTYPE svg PUBLIC "-//W3C//DTD SVG 1.1//EN" "http://www.w3.org/Graphics/SVG/1.1/DTD/svg11.dtd">
<svg width="100%" height="100%" viewBox="0 0 4961 4961" version="1.1" xmlns="http://www.w3.org/2000/svg" xmlns:xlink="http://www.w3.org/1999/xlink" xml:space="preserve" xmlns:serif="http://www.serif.com/" style="fill-rule:evenodd;clip-rule:evenodd;stroke-linejoin:round;stroke-miterlimit:2;">
    <g transform="matrix(1.721951,0,0,1.834783,-2739.128747,-2803.283934)">
        <path d="M3456.661,3279.056C3456.661,3279.056 3697.69,3964.694 3456.661,4077.798C3172.968,4210.921 2038.195,4344.045 1754.502,4077.798C1470.809,3811.551 1612.656,2746.562 1754.502,2480.315C1887.894,2229.938 2605.582,2480.315 2605.582,2480.315C2605.582,2480.315 2463.735,3145.933 2605.582,3279.056C2747.428,3412.18 3456.661,3279.056 3456.661,3279.056Z" style="fill:white;"/>
    </g>
    <g transform="matrix(1.721951,0,0,1.834783,-1273.611403,-4268.801278)">
        <path d="M1754.502,3279.056C1754.502,3279.056 1513.473,2593.418 1754.502,2480.315C2038.195,2347.191 3172.968,2214.068 3456.661,2480.315C3740.354,2746.562 3598.508,3811.551 3456.661,4077.798C3323.27,4328.175 2605.582,4077.798 2605.582,4077.798C2605.582,4077.798 2747.428,3412.18 2605.582,3279.056C2463.735,3145.933 1754.502,3279.056 1754.502,3279.056Z" style="fill:white;"/>
    </g>
</svg>
