<?xml version="1.0" encoding="UTF-8" standalone="no"?>
<!DOCTYPE svg PUBLIC "-//W3C//DTD SVG 1.1//EN" "http://www.w3.org/Graphics/SVG/1.1/DTD/svg11.dtd">
<svg width="100%" height="100%" viewBox="0 0 4961 3508" version="1.1" xmlns="http://www.w3.org/2000/svg" xmlns:xlink="http://www.w3.org/1999/xlink" xml:space="preserve" xmlns:serif="http://www.serif.com/" style="fill-rule:evenodd;clip-rule:evenodd;stroke-linejoin:round;stroke-miterlimit:2;">
    <g transform="matrix(0.771117,0,0,0.771117,1100.353537,2259.771706)">
        <path d="M241.73,0L45.453,0L45.453,-1330.548L241.73,-1330.548L241.73,0ZM332.637,-493.79C332.637,-570.923 343.312,-640.825 364.661,-703.496C386.01,-766.167 416.657,-819.54 456.601,-863.616C496.545,-907.693 544.409,-941.783 600.193,-965.887C655.977,-989.991 717.614,-1002.043 785.106,-1002.043C859.484,-1002.043 919.4,-990.68 964.854,-967.953C1010.307,-945.226 1045.43,-920.089 1070.223,-892.541C1099.148,-859.484 1119.809,-822.295 1132.205,-780.974L1150.8,-780.974L1150.8,-983.448L1349.142,-983.448L1349.142,0L1150.8,0L1150.8,-208.673L1132.205,-208.673C1119.809,-165.974 1099.148,-128.096 1070.223,-95.039C1045.43,-67.492 1010.307,-41.666 964.854,-17.562C919.4,6.543 859.484,18.595 785.106,18.595C717.614,18.595 655.977,6.198 600.193,-18.595C544.409,-43.387 496.545,-78.166 456.601,-122.931C416.657,-167.696 386.01,-221.414 364.661,-284.084C343.312,-346.755 332.637,-416.657 332.637,-493.79ZM528.913,-493.79C528.913,-398.751 557.15,-322.651 613.622,-265.49C670.095,-208.329 745.851,-179.748 840.89,-179.748C934.551,-179.748 1009.619,-208.329 1066.091,-265.49C1122.564,-322.651 1150.8,-398.751 1150.8,-493.79C1150.8,-541.999 1143.224,-585.386 1128.073,-623.953C1112.922,-662.519 1091.917,-695.576 1065.058,-723.124C1038.199,-750.671 1005.831,-772.021 967.953,-787.172C930.075,-802.323 887.721,-809.899 840.89,-809.899C794.059,-809.899 751.36,-802.323 712.793,-787.172C674.227,-772.021 641.514,-750.671 614.655,-723.124C587.796,-695.576 566.791,-662.519 551.64,-623.953C536.489,-585.386 528.913,-541.999 528.913,-493.79ZM1440.049,-1002.043L1582.608,-1002.043L1582.608,-1311.953L1780.951,-1311.953L1780.951,-1088.818C1780.951,-1059.893 1771.998,-1040.954 1754.092,-1032.001C1736.186,-1023.048 1721.723,-1018.572 1710.704,-1018.572L1708.638,-1018.572L1708.638,-1002.043L1979.293,-1002.043L1979.293,-803.7L1780.951,-803.7L1780.951,-295.448C1780.951,-278.919 1783.361,-264.801 1788.182,-253.093C1793.003,-241.386 1802.989,-231.4 1818.14,-223.135C1833.291,-214.871 1854.985,-209.017 1883.221,-205.574C1911.457,-202.13 1948.302,-200.409 1993.756,-200.409L1993.756,-2.066C1854.64,-2.066 1751.337,-23.415 1683.845,-66.114C1616.354,-108.813 1582.608,-185.257 1582.608,-295.448L1582.608,-803.7L1440.049,-803.7L1440.049,-1002.043ZM2082.597,-1002.043L2225.155,-1002.043L2225.155,-1311.953L2423.498,-1311.953L2423.498,-1088.818C2423.498,-1059.893 2414.545,-1040.954 2396.639,-1032.001C2378.733,-1023.048 2364.27,-1018.572 2353.251,-1018.572L2351.185,-1018.572L2351.185,-1002.043L2621.84,-1002.043L2621.84,-803.7L2423.498,-803.7L2423.498,-295.448C2423.498,-278.919 2425.908,-264.801 2430.729,-253.093C2435.55,-241.386 2445.536,-231.4 2460.687,-223.135C2475.838,-214.871 2497.532,-209.017 2525.768,-205.574C2554.004,-202.13 2590.849,-200.409 2636.303,-200.409L2636.303,-2.066C2497.188,-2.066 2393.884,-23.415 2326.393,-66.114C2258.901,-108.813 2225.155,-185.257 2225.155,-295.448L2225.155,-803.7L2082.597,-803.7L2082.597,-1002.043ZM2741.672,-983.448L2940.015,-983.448L2940.015,0L2741.672,0L2741.672,-983.448ZM2725.144,-1159.064C2725.144,-1194.876 2735.474,-1223.457 2756.135,-1244.806C2776.795,-1266.155 2805.032,-1276.83 2840.844,-1276.83C2876.655,-1276.83 2905.236,-1266.155 2926.585,-1244.806C2947.935,-1223.457 2958.609,-1194.876 2958.609,-1159.064C2958.609,-1123.252 2947.935,-1095.016 2926.585,-1074.355C2905.236,-1053.695 2876.655,-1043.364 2840.844,-1043.364C2805.032,-1043.364 2776.795,-1053.695 2756.135,-1074.355C2735.474,-1095.016 2725.144,-1123.252 2725.144,-1159.064ZM3952.388,-121.898C3906.935,-77.822 3852.184,-43.387 3788.136,-18.595C3724.088,6.198 3652.808,18.595 3574.298,18.595C3495.787,18.595 3424.163,6.198 3359.427,-18.595C3294.69,-43.387 3239.595,-77.822 3194.141,-121.898C3148.688,-165.974 3113.22,-219.692 3087.739,-283.051C3062.257,-346.411 3049.516,-415.968 3049.516,-491.724C3049.516,-568.857 3062.257,-638.759 3087.739,-701.43C3113.22,-764.101 3148.688,-817.474 3194.141,-861.55C3239.595,-905.626 3294.69,-940.061 3359.427,-964.854C3424.163,-989.647 3495.787,-1002.043 3574.298,-1002.043C3652.808,-1002.043 3724.088,-989.647 3788.136,-964.854C3852.184,-940.061 3906.935,-905.626 3952.388,-861.55L3809.829,-721.058C3780.904,-748.605 3746.47,-769.61 3706.526,-784.073C3666.582,-798.535 3622.506,-805.767 3574.298,-805.767C3524.712,-805.767 3479.603,-798.191 3438.97,-783.04C3398.338,-767.889 3363.903,-746.539 3335.667,-718.992C3307.431,-691.444 3285.392,-658.387 3269.553,-619.82C3253.713,-581.254 3245.793,-538.555 3245.793,-491.724C3245.793,-444.893 3253.713,-402.195 3269.553,-363.628C3285.392,-325.061 3307.431,-292.004 3335.667,-264.457C3363.903,-236.909 3398.338,-215.56 3438.97,-200.409C3479.603,-185.257 3524.712,-177.682 3574.298,-177.682C3622.506,-177.682 3666.582,-184.913 3706.526,-199.376C3746.47,-213.838 3780.904,-234.843 3809.829,-262.391L3952.388,-121.898ZM4861.459,-121.898C4816.006,-77.822 4761.255,-43.387 4697.207,-18.595C4633.159,6.198 4561.879,18.595 4483.369,18.595C4404.858,18.595 4333.579,6.198 4269.531,-18.595C4205.483,-43.387 4150.387,-77.822 4104.245,-121.898C4058.103,-165.974 4022.636,-219.692 3997.843,-283.051C3973.05,-346.411 3960.653,-415.968 3960.653,-491.724C3960.653,-568.857 3973.05,-638.759 3997.843,-701.43C4022.636,-764.101 4058.103,-817.474 4104.245,-861.55C4150.387,-905.626 4205.483,-940.061 4269.531,-964.854C4333.579,-989.647 4404.858,-1002.043 4483.369,-1002.043C4561.879,-1002.043 4633.159,-989.647 4697.207,-964.854C4761.255,-940.061 4816.35,-905.626 4862.492,-861.55C4908.634,-817.474 4944.102,-764.101 4968.895,-701.43C4993.687,-638.759 5006.084,-568.857 5006.084,-491.724C5006.084,-461.422 5004.018,-430.431 4999.886,-398.751L4167.26,-398.751C4186.544,-331.26 4223.733,-277.542 4278.828,-237.598C4333.923,-197.654 4402.103,-177.682 4483.369,-177.682C4532.954,-177.682 4577.375,-184.913 4616.63,-199.376C4655.885,-213.838 4689.975,-234.843 4718.9,-262.391L4861.459,-121.898ZM4799.477,-578.499C4781.571,-648.745 4745.071,-704.185 4689.975,-744.818C4634.88,-785.45 4566.011,-805.767 4483.369,-805.767C4400.726,-805.767 4331.513,-785.45 4275.729,-744.818C4219.945,-704.185 4183.789,-648.745 4167.26,-578.499L4799.477,-578.499Z" style="fill:white;"/>
    </g>
    <g transform="matrix(1.211536,0,0,1.211536,-491.419978,-371.020688)">
        <g transform="matrix(0.268144,0,0,0.285714,-20.92167,931.171584)">
            <path d="M3456.661,3279.056C3456.661,3279.056 3697.69,3964.694 3456.661,4077.798C3172.968,4210.921 2038.195,4344.045 1754.502,4077.798C1470.809,3811.551 1612.656,2746.562 1754.502,2480.315C1887.894,2229.938 2605.582,2480.315 2605.582,2480.315C2605.582,2480.315 2463.735,3145.933 2605.582,3279.056C2747.428,3412.18 3456.661,3279.056 3456.661,3279.056Z" style="fill:white;"/>
        </g>
        <g transform="matrix(0.268144,0,0,0.285714,207.289747,702.960167)">
            <path d="M1754.502,3279.056C1754.502,3279.056 1513.473,2593.418 1754.502,2480.315C2038.195,2347.191 3172.968,2214.068 3456.661,2480.315C3740.354,2746.562 3598.508,3811.551 3456.661,4077.798C3323.27,4328.175 2605.582,4077.798 2605.582,4077.798C2605.582,4077.798 2747.428,3412.18 2605.582,3279.056C2463.735,3145.933 1754.502,3279.056 1754.502,3279.056Z" style="fill:white;"/>
        </g>
    </g>
</svg>
